WixMadeforText_Md.ufo
<glyph name="dollar" format="2">
	<unicode hex="0024"/>
	<advance width="632"/>
	<outline>
		<contour>
			<point x="55" y="122" type="line"/>
			<point x="120" y="38"/>
			<point x="213" y="-6"/>
			<point x="321" y="-6" type="curve" smooth="yes"/>
			<point x="475" y="-6"/>
			<point x="578" y="83"/>
			<point x="578" y="205" type="curve" smooth="yes"/>
			<point x="578" y="324"/>
			<point x="504" y="382"/>
			<point x="323" y="412" type="curve" smooth="yes"/>
			<point x="216" y="430"/>
			<point x="172" y="459"/>
			<point x="172" y="524" type="curve" smooth="yes"/>
			<point x="172" y="590"/>
			<point x="230" y="636"/>
			<point x="316" y="636" type="curve" smooth="yes"/>
			<point x="386" y="636"/>
			<point x="448" y="599"/>
			<point x="494" y="530" type="curve"/>
			<point x="560" y="593" type="line"/>
			<point x="498" y="676"/>
			<point x="415" y="721"/>
			<point x="318" y="721" type="curve" smooth="yes"/>
			<point x="179" y="721"/>
			<point x="77" y="637"/>
			<point x="77" y="522" type="curve" smooth="yes"/>
			<point x="77" y="410"/>
			<point x="147" y="352"/>
			<point x="312" y="323" type="curve" smooth="yes"/>
			<point x="435" y="302"/>
			<point x="482" y="269"/>
			<point x="482" y="202" type="curve" smooth="yes"/>
			<point x="482" y="129"/>
			<point x="421" y="78"/>
			<point x="321" y="78" type="curve" smooth="yes"/>
			<point x="241" y="78"/>
			<point x="171" y="115"/>
			<point x="120" y="185" type="curve"/>
		</contour>
		<contour>
			<point x="356" y="374" type="line"/>
			<point x="356" y="831" type="line"/>
			<point x="292" y="831" type="line"/>
			<point x="292" y="374" type="line"/>
		</contour>
		<contour>
			<point x="353" y="-116" type="line"/>
			<point x="353" y="364" type="line"/>
			<point x="290" y="364" type="line"/>
			<point x="290" y="-116" type="line"/>
		</contour>
	</outline>
</glyph>
<glyph name="ampersand" format="2">
	<unicode hex="0026"/>
	<advance width="658"/>
	<outline>
		<contour>
			<point x="634" y="299" type="line"/>
			<point x="560" y="351" type="line"/>
			<point x="440" y="172" type="line" smooth="yes"/>
			<point x="393" y="101"/>
			<point x="337" y="68"/>
			<point x="277" y="68" type="curve" smooth="yes"/>
			<point x="199" y="68"/>
			<point x="150" y="115"/>
			<point x="150" y="188" type="curve" smooth="yes"/>
			<point x="150" y="263"/>
			<point x="190" y="312"/>
			<point x="281" y="345" type="curve"/>
			<point x="261" y="413" type="line"/>
			<point x="112" y="359"/>
			<point x="45" y="288"/>
			<point x="45" y="185" type="curve" smooth="yes"/>
			<point x="45" y="65"/>
			<point x="136" y="-16"/>
			<point x="273" y="-16" type="curve" smooth="yes"/>
			<point x="381" y="-16"/>
			<point x="453" y="28"/>
			<point x="529" y="142" type="curve" smooth="yes"/>
		</contour>
		<contour>
			<point x="652" y="58" type="line"/>
			<point x="321" y="385" type="line"/>
			<point x="301" y="403" type="line" smooth="yes"/>
			<point x="226" y="475"/>
			<point x="205" y="511"/>
			<point x="205" y="559" type="curve" smooth="yes"/>
			<point x="205" y="613"/>
			<point x="243" y="650"/>
			<point x="297" y="650" type="curve" smooth="yes"/>
			<point x="350" y="650"/>
			<point x="388" y="611"/>
			<point x="388" y="556" type="curve" smooth="yes"/>
			<point x="388" y="491"/>
			<point x="350" y="447"/>
			<point x="266" y="417" type="curve"/>
			<point x="286" y="349" type="line"/>
			<point x="410" y="389"/>
			<point x="483" y="465"/>
			<point x="483" y="558" type="curve" smooth="yes"/>
			<point x="483" y="658"/>
			<point x="402" y="731"/>
			<point x="294" y="731" type="curve" smooth="yes"/>
			<point x="186" y="731"/>
			<point x="108" y="656"/>
			<point x="108" y="557" type="curve" smooth="yes"/>
			<point x="108" y="489"/>
			<point x="136" y="440"/>
			<point x="215" y="363" type="curve"/>
			<point x="231" y="347" type="line"/>
			<point x="590" y="-9" type="line"/>
		</contour>
	</outline>
</glyph>
<glyph name="quotesingle" format="2">
	<unicode hex="0027"/>
	<advance width="258"/>
	<outline>
		<contour>
			<point x="149" y="473" type="line"/>
			<point x="166" y="561"/>
			<point x="180" y="656"/>
			<point x="180" y="686" type="curve" smooth="yes"/>
			<point x="180" y="719"/>
			<point x="157" y="741"/>
			<point x="129" y="741" type="curve" smooth="yes"/>
			<point x="101" y="741"/>
			<point x="78" y="719"/>
			<point x="78" y="686" type="curve" smooth="yes"/>
			<point x="78" y="656"/>
			<point x="92" y="561"/>
			<point x="109" y="473" type="curve"/>
		</contour>
	</outline>
</glyph>
<glyph name="parenright" format="2">
	<unicode hex="0029"/>
	<advance width="336"/>
	<outline>
		<contour>
			<point x="36" y="-129" type="line"/>
			<point x="128" y="10"/>
			<point x="171" y="154"/>
			<point x="171" y="304" type="curve" smooth="yes"/>
			<point x="171" y="457"/>
			<point x="129" y="591"/>
			<point x="36" y="731" type="curve"/>
			<point x="135" y="731" type="line"/>
			<point x="225" y="608"/>
			<point x="270" y="463"/>
			<point x="270" y="304" type="curve" smooth="yes"/>
			<point x="270" y="143"/>
			<point x="224" y="-7"/>
			<point x="134" y="-129" type="curve"/>
		</contour>
	</outline>
</glyph>
<glyph name="comma" format="2">
	<unicode hex="002C"/>
	<advance width="254"/>
	<outline>
		<contour>
			<point x="114" y="-146" type="line"/>
			<point x="163" y="-91"/>
			<point x="196" y="-12"/>
			<point x="196" y="54" type="curve" smooth="yes"/>
			<point x="196" y="95"/>
			<point x="168" y="127"/>
			<point x="127" y="127" type="curve" smooth="yes"/>
			<point x="87" y="127"/>
			<point x="58" y="97"/>
			<point x="58" y="57" type="curve" smooth="yes"/>
			<point x="58" y="17"/>
			<point x="88" y="-12"/>
			<point x="128" y="-12" type="curve"/>
			<point x="117" y="21" type="line"/>
			<point x="117" y="-33"/>
			<point x="95" y="-89"/>
			<point x="51" y="-146" type="curve"/>
		</contour>
	</outline>
</glyph>
<glyph name="two" format="2">
	<unicode hex="0032"/>
	<advance width="551"/>
	<outline>
		<contour>
			<point x="515" y="0" type="line"/>
			<point x="515" y="85" type="line"/>
			<point x="183" y="85" type="line"/>
			<point x="345" y="248" type="line" smooth="yes"/>
			<point x="475" y="376"/>
			<point x="513" y="438"/>
			<point x="513" y="530" type="curve" smooth="yes"/>
			<point x="513" y="651"/>
			<point x="424" y="731"/>
			<point x="291" y="731" type="curve" smooth="yes"/>
			<point x="190" y="731"/>
			<point x="107" y="685"/>
			<point x="46" y="593" type="curve"/>
			<point x="114" y="528" type="line"/>
			<point x="162" y="608"/>
			<point x="217" y="644"/>
			<point x="290" y="644" type="curve" smooth="yes"/>
			<point x="366" y="644"/>
			<point x="413" y="598"/>
			<point x="413" y="526" type="curve" smooth="yes"/>
			<point x="413" y="462"/>
			<point x="384" y="412"/>
			<point x="296" y="324" type="curve" smooth="yes"/>
			<point x="53" y="83" type="line"/>
			<point x="53" y="0" type="line"/>
		</contour>
	</outline>
	<guideline x="70" y="0" angle="0"/>
	<guideline x="66" y="-27" angle="137.89"/>
</glyph>
<glyph name="equal" format="2">
	<unicode hex="003D"/>
	<advance width="632"/>
	<outline>
		<contour>
			<point x="503" y="210" type="line"/>
			<point x="503" y="292" type="line"/>
			<point x="129" y="292" type="line"/>
			<point x="129" y="210" type="line"/>
		</contour>
		<contour>
			<point x="503" y="423" type="line"/>
			<point x="503" y="505" type="line"/>
			<point x="129" y="505" type="line"/>
			<point x="129" y="423" type="line"/>
		</contour>
	</outline>
</glyph>
<glyph name="E" format="2">
	<unicode hex="0045"/>
	<advance width="607"/>
	<outline>
		<contour>
			<point x="559" y="0" type="line"/>
			<point x="559" y="89" type="line"/>
			<point x="202" y="89" type="line"/>
			<point x="202" y="626" type="line"/>
			<point x="559" y="626" type="line"/>
			<point x="559" y="715" type="line"/>
			<point x="99" y="715" type="line"/>
			<point x="99" y="0" type="line"/>
		</contour>
		<contour>
			<point x="541" y="320" type="line"/>
			<point x="541" y="409" type="line"/>
			<point x="192" y="409" type="line"/>
			<point x="192" y="320" type="line"/>
		</contour>
	</outline>
	<anchor name="ogonek.UC" x="449" y="-30"/>
	<anchor name="top.UC" x="329" y="750"/>
	<anchor name="bottom.UC" x="329" y="-50"/>
</glyph>
<glyph name="F" format="2">
	<unicode hex="0046"/>
	<advance width="575"/>
	<outline>
		<contour>
			<point x="202" y="0" type="line"/>
			<point x="202" y="626" type="line"/>
			<point x="540" y="626" type="line"/>
			<point x="540" y="715" type="line"/>
			<point x="99" y="715" type="line"/>
			<point x="99" y="0" type="line"/>
		</contour>
		<contour>
			<point x="522" y="318" type="line"/>
			<point x="522" y="407" type="line"/>
			<point x="192" y="407" type="line"/>
			<point x="192" y="318" type="line"/>
		</contour>
	</outline>
</glyph>
<glyph name="I" format="2">
	<unicode hex="0049"/>
	<advance width="301"/>
	<outline>
		<contour>
			<point x="202" y="0" type="line"/>
			<point x="202" y="715" type="line"/>
			<point x="99" y="715" type="line"/>
			<point x="99" y="0" type="line"/>
		</contour>
	</outline>
	<anchor name="ogonek.UC" x="92" y="-30"/>
	<anchor name="top.UC" x="150" y="750"/>
	<anchor name="bottom.UC" x="150" y="-50"/>
</glyph>
<glyph name="K" format="2">
	<unicode hex="004B"/>
	<advance width="705"/>
	<outline>
		<contour>
			<point x="202" y="0" type="line"/>
			<point x="202" y="715" type="line"/>
			<point x="99" y="715" type="line"/>
			<point x="99" y="0" type="line"/>
		</contour>
		<contour>
			<point x="677" y="0" type="line"/>
			<point x="302" y="385" type="line"/>
			<point x="302" y="357" type="line"/>
			<point x="638" y="715" type="line"/>
			<point x="507" y="715" type="line"/>
			<point x="193" y="371" type="line"/>
			<point x="179" y="371" type="line"/>
			<point x="532" y="0" type="line"/>
		</contour>
	</outline>
	<anchor name="top.UC" x="354" y="750"/>
	<anchor name="bottom.UC" x="355" y="-50"/>
</glyph>
<glyph name="L" format="2">
	<unicode hex="004C"/>
	<advance width="574"/>
	<outline>
		<contour>
			<point x="539" y="0" type="line"/>
			<point x="539" y="90" type="line"/>
			<point x="202" y="90" type="line"/>
			<point x="202" y="715" type="line"/>
			<point x="99" y="715" type="line"/>
			<point x="99" y="0" type="line"/>
		</contour>
	</outline>
	<anchor name="top_right" x="374" y="540"/>
	<anchor name="bottom.UC" x="319" y="-50"/>
	<anchor name="top.UC" x="150" y="750"/>
</glyph>
<glyph name="N" format="2">
	<unicode hex="004E"/>
	<advance width="762"/>
	<outline>
		<contour>
			<point x="199" y="0" type="line"/>
			<point x="199" y="611" type="line"/>
			<point x="165" y="611" type="line"/>
			<point x="555" y="0" type="line"/>
			<point x="664" y="0" type="line"/>
			<point x="664" y="715" type="line"/>
			<point x="564" y="715" type="line"/>
			<point x="564" y="104" type="line"/>
			<point x="598" y="104" type="line"/>
			<point x="208" y="715" type="line"/>
			<point x="99" y="715" type="line"/>
			<point x="99" y="0" type="line"/>
		</contour>
	</outline>
	<anchor name="top.UC" x="386" y="750"/>
	<anchor name="bottom.UC" x="369" y="-50"/>
</glyph>
<glyph name="P" format="2">
	<unicode hex="0050"/>
	<advance width="646"/>
	<outline>
		<contour>
			<point x="202" y="0" type="line"/>
			<point x="202" y="626" type="line"/>
			<point x="366" y="626" type="line" smooth="yes"/>
			<point x="445" y="626"/>
			<point x="493" y="581"/>
			<point x="493" y="507" type="curve" smooth="yes"/>
			<point x="493" y="432"/>
			<point x="445" y="387"/>
			<point x="366" y="387" type="curve" smooth="yes"/>
			<point x="192" y="387" type="line"/>
			<point x="192" y="298" type="line"/>
			<point x="366" y="298" type="line" smooth="yes"/>
			<point x="504" y="298"/>
			<point x="597" y="382"/>
			<point x="597" y="507" type="curve" smooth="yes"/>
			<point x="597" y="632"/>
			<point x="504" y="715"/>
			<point x="366" y="715" type="curve" smooth="yes"/>
			<point x="99" y="715" type="line"/>
			<point x="99" y="0" type="line"/>
		</contour>
	</outline>
</glyph>
<glyph name="S" format="2">
	<unicode hex="0053"/>
	<advance width="666"/>
	<outline>
		<contour>
			<point x="43" y="116" type="line"/>
			<point x="118" y="29"/>
			<point x="219" y="-16"/>
			<point x="337" y="-16" type="curve" smooth="yes"/>
			<point x="499" y="-16"/>
			<point x="611" y="73"/>
			<point x="611" y="203" type="curve" smooth="yes"/>
			<point x="611" y="324"/>
			<point x="532" y="388"/>
			<point x="345" y="417" type="curve" smooth="yes"/>
			<point x="223" y="437"/>
			<point x="177" y="466"/>
			<point x="177" y="525" type="curve" smooth="yes"/>
			<point x="177" y="597"/>
			<point x="237" y="641"/>
			<point x="331" y="641" type="curve" smooth="yes"/>
			<point x="416" y="641"/>
			<point x="482" y="607"/>
			<point x="541" y="536" type="curve"/>
			<point x="609" y="606" type="line"/>
			<point x="538" y="689"/>
			<point x="444" y="731"/>
			<point x="331" y="731" type="curve" smooth="yes"/>
			<point x="179" y="731"/>
			<point x="72" y="644"/>
			<point x="72" y="519" type="curve" smooth="yes"/>
			<point x="72" y="408"/>
			<point x="147" y="349"/>
			<point x="328" y="321" type="curve" smooth="yes"/>
			<point x="456" y="300"/>
			<point x="506" y="266"/>
			<point x="506" y="199" type="curve" smooth="yes"/>
			<point x="506" y="123"/>
			<point x="440" y="75"/>
			<point x="338" y="75" type="curve" smooth="yes"/>
			<point x="249" y="75"/>
			<point x="171" y="114"/>
			<point x="114" y="186" type="curve"/>
		</contour>
	</outline>
	<anchor name="bottom.UC" x="338" y="-50"/>
	<anchor name="top.UC" x="331" y="750"/>
</glyph>
<glyph name="V" format="2">
	<unicode hex="0056"/>
	<advance width="709"/>
	<outline>
		<contour>
			<point x="408" y="0" type="line"/>
			<point x="670" y="715" type="line"/>
			<point x="564" y="715" type="line"/>
			<point x="341" y="71" type="line"/>
			<point x="373" y="71" type="line"/>
			<point x="150" y="715" type="line"/>
			<point x="39" y="715" type="line"/>
			<point x="302" y="0" type="line"/>
		</contour>
	</outline>
</glyph>
<glyph name="X" format="2">
	<unicode hex="0058"/>
	<advance width="695"/>
	<outline>
		<contour>
			<point x="155" y="0" type="line"/>
			<point x="361" y="325" type="line"/>
			<point x="333" y="325" type="line"/>
			<point x="539" y="0" type="line"/>
			<point x="660" y="0" type="line"/>
			<point x="401" y="391" type="line"/>
			<point x="402" y="349" type="line"/>
			<point x="637" y="715" type="line"/>
			<point x="520" y="715" type="line"/>
			<point x="337" y="414" type="line"/>
			<point x="366" y="414" type="line"/>
			<point x="179" y="715" type="line"/>
			<point x="58" y="715" type="line"/>
			<point x="297" y="349" type="line"/>
			<point x="294" y="391" type="line"/>
			<point x="35" y="0" type="line"/>
		</contour>
	</outline>
</glyph>
<glyph name="bracketright" format="2">
	<unicode hex="005D"/>
	<advance width="315"/>
	<outline>
		<contour>
			<point x="30" y="-129" type="line"/>
			<point x="30" y="-48" type="line"/>
			<point x="137" y="-48" type="line"/>
			<point x="137" y="650" type="line"/>
			<point x="30" y="650" type="line"/>
			<point x="30" y="731" type="line"/>
			<point x="236" y="731" type="line"/>
			<point x="236" y="-129" type="line"/>
		</contour>
	</outline>
</glyph>
<glyph name="underscore" format="2">
	<unicode hex="005F"/>
	<advance width="469"/>
	<outline>
		<contour>
			<point x="469" y="-138" type="line"/>
			<point x="469" y="-56" type="line"/>
			<point x="0" y="-56" type="line"/>
			<point x="0" y="-138" type="line"/>
		</contour>
	</outline>
</glyph>
<glyph name="a" format="2">
	<unicode hex="0061"/>
	<advance width="551"/>
	<outline>
		<contour>
			<point x="480" y="0" type="line"/>
			<point x="480" y="310" type="line" smooth="yes"/>
			<point x="480" y="432"/>
			<point x="394" y="513"/>
			<point x="263" y="513" type="curve" smooth="yes"/>
			<point x="182" y="513"/>
			<point x="117" y="486"/>
			<point x="57" y="428" type="curve"/>
			<point x="115" y="366" type="line"/>
			<point x="157" y="411"/>
			<point x="201" y="432"/>
			<point x="255" y="432" type="curve" smooth="yes"/>
			<point x="337" y="432"/>
			<point x="386" y="383"/>
			<point x="386" y="307" type="curve" smooth="yes"/>
			<point x="386" y="121" type="line"/>
			<point x="389" y="98" type="line"/>
			<point x="389" y="0" type="line"/>
		</contour>
		<contour>
			<point x="221" y="-16" type="curve" smooth="yes"/>
			<point x="342" y="-16"/>
			<point x="428" y="70"/>
			<point x="428" y="192" type="curve"/>
			<point x="397" y="209" type="line"/>
			<point x="391" y="123"/>
			<point x="326" y="62"/>
			<point x="241" y="62" type="curve" smooth="yes"/>
			<point x="181" y="62"/>
			<point x="143" y="96"/>
			<point x="143" y="147" type="curve" smooth="yes"/>
			<point x="143" y="203"/>
			<point x="190" y="236"/>
			<point x="270" y="236" type="curve" smooth="yes"/>
			<point x="395" y="236" type="line"/>
			<point x="395" y="307" type="line"/>
			<point x="261" y="307" type="line" smooth="yes"/>
			<point x="125" y="307"/>
			<point x="41" y="245"/>
			<point x="41" y="143" type="curve" smooth="yes"/>
			<point x="41" y="50"/>
			<point x="114" y="-16"/>
		</contour>
	</outline>
	<anchor name="ogonek.LC" x="370" y="-30"/>
	<anchor name="top.LC" x="264" y="544"/>
	<anchor name="bottom.LC" x="264" y="-50"/>
	<guideline x="41" y="0" angle="0"/>
</glyph>
<glyph name="j" format="2">
	<unicode hex="006A"/>
	<advance width="258"/>
	<outline>
		<contour>
			<point x="-8" y="-194" type="line"/>
			<point x="56" y="-194" type="line" smooth="yes"/>
			<point x="139" y="-194"/>
			<point x="179" y="-152"/>
			<point x="179" y="-65" type="curve" smooth="yes"/>
			<point x="179" y="497" type="line"/>
			<point x="79" y="497" type="line"/>
			<point x="79" y="-51" type="line" smooth="yes"/>
			<point x="79" y="-94"/>
			<point x="63" y="-111"/>
			<point x="25" y="-111" type="curve" smooth="yes"/>
			<point x="-8" y="-111" type="line"/>
		</contour>
		<contour>
			<point x="194" y="673" type="curve" smooth="yes"/>
			<point x="194" y="711"/>
			<point x="166" y="738"/>
			<point x="129" y="738" type="curve" smooth="yes"/>
			<point x="91" y="738"/>
			<point x="63" y="711"/>
			<point x="63" y="673" type="curve" smooth="yes"/>
			<point x="63" y="636"/>
			<point x="91" y="609"/>
			<point x="129" y="609" type="curve" smooth="yes"/>
			<point x="166" y="609"/>
			<point x="194" y="636"/>
		</contour>
	</outline>
</glyph>
<glyph name="r" format="2">
	<unicode hex="0072"/>
	<advance width="386"/>
	<outline>
		<contour>
			<point x="362" y="505" type="line"/>
			<point x="344" y="505" type="line" smooth="yes"/>
			<point x="269" y="505"/>
			<point x="183" y="464"/>
			<point x="164" y="337" type="curve"/>
			<point x="178" y="337" type="line"/>
			<point x="178" y="497" type="line"/>
			<point x="79" y="497" type="line"/>
			<point x="79" y="0" type="line"/>
			<point x="179" y="0" type="line"/>
			<point x="179" y="209" type="line" smooth="yes"/>
			<point x="179" y="349"/>
			<point x="250" y="411"/>
			<point x="341" y="411" type="curve" smooth="yes"/>
			<point x="362" y="411" type="line"/>
		</contour>
	</outline>
	<anchor name="top.LC" x="232" y="544"/>
</glyph>
<glyph name="t" format="2">
	<unicode hex="0074"/>
	<advance width="389"/>
	<outline>
		<contour>
			<point x="351" y="0" type="line"/>
			<point x="351" y="84" type="line"/>
			<point x="268" y="84" type="line" smooth="yes"/>
			<point x="235" y="84"/>
			<point x="220" y="102"/>
			<point x="220" y="135" type="curve" smooth="yes"/>
			<point x="220" y="636" type="line"/>
			<point x="120" y="636" type="line"/>
			<point x="120" y="122" type="line"/>
			<point x="120" y="42"/>
			<point x="160" y="0"/>
			<point x="238" y="0" type="curve" smooth="yes"/>
		</contour>
		<contour>
			<point x="345" y="413" type="line"/>
			<point x="345" y="497" type="line"/>
			<point x="32" y="497" type="line"/>
			<point x="32" y="413" type="line"/>
		</contour>
	</outline>
	<anchor name="top_right.LC.short" x="316" y="540"/>
	<anchor name="bottom.LC" x="255" y="-50"/>
</glyph>
<glyph name="v" format="2">
	<unicode hex="0076"/>
	<advance width="555"/>
	<outline>
		<contour>
			<point x="327" y="0" type="line"/>
			<point x="527" y="497" type="line"/>
			<point x="427" y="497" type="line"/>
			<point x="266" y="63" type="line"/>
			<point x="294" y="63" type="line"/>
			<point x="134" y="497" type="line"/>
			<point x="29" y="497" type="line"/>
			<point x="229" y="0" type="line"/>
		</contour>
	</outline>
</glyph>
<glyph name="braceleft" format="2">
	<unicode hex="007B"/>
	<advance width="389"/>
	<outline>
		<contour>
			<point x="340" y="-48" type="line"/>
			<point x="287" y="-48" type="line" smooth="yes"/>
			<point x="249" y="-48"/>
			<point x="233" y="-31"/>
			<point x="233" y="10" type="curve" smooth="yes"/>
			<point x="233" y="186" type="line" smooth="yes"/>
			<point x="233" y="273"/>
			<point x="194" y="315"/>
			<point x="110" y="315" type="curve"/>
			<point x="110" y="291" type="line"/>
			<point x="194" y="291"/>
			<point x="233" y="333"/>
			<point x="233" y="420" type="curve" smooth="yes"/>
			<point x="233" y="592" type="line" smooth="yes"/>
			<point x="233" y="633"/>
			<point x="249" y="650"/>
			<point x="288" y="650" type="curve" smooth="yes"/>
			<point x="340" y="650" type="line"/>
			<point x="340" y="731" type="line"/>
			<point x="257" y="731" type="line" smooth="yes"/>
			<point x="175" y="731"/>
			<point x="135" y="689"/>
			<point x="135" y="602" type="curve" smooth="yes"/>
			<point x="135" y="402" type="line" smooth="yes"/>
			<point x="135" y="361"/>
			<point x="119" y="343"/>
			<point x="81" y="343" type="curve" smooth="yes"/>
			<point x="49" y="343" type="line"/>
			<point x="49" y="262" type="line"/>
			<point x="81" y="262" type="line" smooth="yes"/>
			<point x="119" y="262"/>
			<point x="135" y="245"/>
			<point x="135" y="204" type="curve" smooth="yes"/>
			<point x="135" y="0" type="line" smooth="yes"/>
			<point x="135" y="-87"/>
			<point x="175" y="-129"/>
			<point x="257" y="-129" type="curve" smooth="yes"/>
			<point x="340" y="-129" type="line"/>
		</contour>
	</outline>
</glyph>
<glyph name="bar" format="2">
	<unicode hex="007C"/>
	<advance width="256"/>
	<outline>
		<contour>
			<point x="178" y="-129" type="line"/>
			<point x="178" y="736" type="line"/>
			<point x="79" y="736" type="line"/>
			<point x="79" y="-129" type="line"/>
		</contour>
	</outline>
</glyph>
<glyph name="sterling" format="2">
	<unicode hex="00A3"/>
	<advance width="632"/>
	<outline>
		<contour>
			<point x="581" y="0" type="line"/>
			<point x="581" y="85" type="line"/>
			<point x="64" y="85" type="line"/>
			<point x="64" y="0" type="line"/>
		</contour>
		<contour>
			<point x="474" y="311" type="line"/>
			<point x="474" y="393" type="line"/>
			<point x="73" y="393" type="line"/>
			<point x="73" y="311" type="line"/>
		</contour>
		<contour>
			<point x="582" y="611" type="line"/>
			<point x="534" y="689"/>
			<point x="463" y="731"/>
			<point x="379" y="731" type="curve" smooth="yes"/>
			<point x="247" y="731"/>
			<point x="161" y="636"/>
			<point x="161" y="489" type="curve" smooth="yes"/>
			<point x="161" y="43" type="line"/>
			<point x="261" y="43" type="line"/>
			<point x="261" y="491" type="line" smooth="yes"/>
			<point x="261" y="586"/>
			<point x="306" y="644"/>
			<point x="379" y="644" type="curve" smooth="yes"/>
			<point x="433" y="644"/>
			<point x="471" y="617"/>
			<point x="512" y="548" type="curve"/>
		</contour>
	</outline>
</glyph>
<glyph name="copyright" format="2">
	<unicode hex="00A9"/>
	<advance width="848"/>
	<outline>
		<contour>
			<point x="534" y="274" type="line"/>
			<point x="510" y="237"/>
			<point x="474" y="214"/>
			<point x="430" y="214" type="curve" smooth="yes"/>
			<point x="361" y="214"/>
			<point x="308" y="275"/>
			<point x="308" y="358" type="curve" smooth="yes"/>
			<point x="308" y="443"/>
			<point x="361" y="503"/>
			<point x="430" y="503" type="curve" smooth="yes"/>
			<point x="474" y="503"/>
			<point x="510" y="481"/>
			<point x="534" y="444" type="curve"/>
			<point x="586" y="495" type="line"/>
			<point x="552" y="541"/>
			<point x="497" y="572"/>
			<point x="428" y="572" type="curve" smooth="yes"/>
			<point x="311" y="572"/>
			<point x="224" y="483"/>
			<point x="224" y="358" type="curve" smooth="yes"/>
			<point x="224" y="235"/>
			<point x="309" y="145"/>
			<point x="426" y="145" type="curve" smooth="yes"/>
			<point x="495" y="145"/>
			<point x="552" y="175"/>
			<point x="586" y="221" type="curve"/>
		</contour>
		<contour>
			<point x="424" y="-26" type="curve" smooth="yes"/>
			<point x="637" y="-26"/>
			<point x="805" y="144"/>
			<point x="805" y="358" type="curve" smooth="yes"/>
			<point x="805" y="572"/>
			<point x="637" y="742"/>
			<point x="424" y="742" type="curve" smooth="yes"/>
			<point x="211" y="742"/>
			<point x="43" y="572"/>
			<point x="43" y="358" type="curve" smooth="yes"/>
			<point x="43" y="144"/>
			<point x="211" y="-26"/>
		</contour>
		<contour>
			<point x="424" y="45" type="curve" smooth="yes"/>
			<point x="252" y="45"/>
			<point x="115" y="183"/>
			<point x="115" y="358" type="curve" smooth="yes"/>
			<point x="115" y="533"/>
			<point x="252" y="671"/>
			<point x="424" y="671" type="curve" smooth="yes"/>
			<point x="596" y="671"/>
			<point x="733" y="533"/>
			<point x="733" y="358" type="curve" smooth="yes"/>
			<point x="733" y="183"/>
			<point x="596" y="45"/>
		</contour>
	</outline>
</glyph>
<glyph name="paragraph" format="2">
	<unicode hex="00B6"/>
	<advance width="585"/>
	<outline>
		<contour>
			<point x="322" y="-130" type="line"/>
			<point x="322" y="629" type="line"/>
			<point x="421" y="629" type="line"/>
			<point x="421" y="-130" type="line"/>
			<point x="514" y="-130" type="line"/>
			<point x="514" y="715" type="line"/>
			<point x="271" y="715" type="line" smooth="yes"/>
			<point x="128" y="715"/>
			<point x="32" y="629"/>
			<point x="32" y="498" type="curve" smooth="yes"/>
			<point x="32" y="381"/>
			<point x="112" y="296"/>
			<point x="229" y="285" type="curve"/>
			<point x="229" y="-130" type="line"/>
		</contour>
	</outline>
</glyph>
<glyph name="multiply" format="2">
	<unicode hex="00D7"/>
	<advance width="632"/>
	<outline>
		<contour>
			<point x="495" y="227" type="line"/>
			<point x="196" y="542" type="line"/>
			<point x="139" y="486" type="line"/>
			<point x="439" y="171" type="line"/>
		</contour>
		<contour>
			<point x="196" y="171" type="line"/>
			<point x="495" y="486" type="line"/>
			<point x="439" y="542" type="line"/>
			<point x="139" y="227" type="line"/>
		</contour>
	</outline>
	<guideline y="171"/>
	<guideline y="227"/>
	<guideline y="486"/>
	<guideline y="542"/>
</glyph>
<glyph name="thorn" format="2">
	<unicode hex="00FE"/>
	<advance width="633"/>
	<outline>
		<contour>
			<point x="179" y="-194" type="line"/>
			<point x="179" y="239" type="line" smooth="yes"/>
			<point x="179" y="351"/>
			<point x="243" y="428"/>
			<point x="331" y="428" type="curve" smooth="yes"/>
			<point x="420" y="428"/>
			<point x="478" y="353"/>
			<point x="478" y="248" type="curve" smooth="yes"/>
			<point x="478" y="143"/>
			<point x="416" y="69"/>
			<point x="325" y="69" type="curve" smooth="yes"/>
			<point x="245" y="69"/>
			<point x="180" y="129"/>
			<point x="171" y="212" type="curve"/>
			<point x="151" y="193" type="line"/>
			<point x="141" y="75"/>
			<point x="221" y="-16"/>
			<point x="346" y="-16" type="curve" smooth="yes"/>
			<point x="480" y="-16"/>
			<point x="583" y="93"/>
			<point x="583" y="248" type="curve" smooth="yes"/>
			<point x="583" y="402"/>
			<point x="483" y="513"/>
			<point x="350" y="513" type="curve" smooth="yes"/>
			<point x="248" y="513"/>
			<point x="170" y="442"/>
			<point x="156" y="345" type="curve"/>
			<point x="179" y="345" type="line"/>
			<point x="179" y="720" type="line"/>
			<point x="79" y="720" type="line"/>
			<point x="79" y="-194" type="line"/>
		</contour>
	</outline>
	<guideline x="179" y="0" angle="0"/>
</glyph>
<glyph name="dcroat" format="2">
	<unicode hex="0111"/>
	<advance width="638"/>
	<outline>
		<contour>
			<point x="630" y="564" type="line"/>
			<point x="630" y="641" type="line"/>
			<point x="305" y="641" type="line"/>
			<point x="305" y="564" type="line"/>
		</contour>
		<contour>
			<point x="554" y="0" type="line"/>
			<point x="554" y="720" type="line"/>
			<point x="454" y="720" type="line"/>
			<point x="454" y="339" type="line"/>
			<point x="479" y="339" type="line"/>
			<point x="466" y="436"/>
			<point x="389" y="505"/>
			<point x="286" y="505" type="curve" smooth="yes"/>
			<point x="153" y="505"/>
			<point x="50" y="395"/>
			<point x="50" y="244" type="curve" smooth="yes"/>
			<point x="50" y="93"/>
			<point x="153" y="-16"/>
			<point x="287" y="-16" type="curve" smooth="yes"/>
			<point x="408" y="-16"/>
			<point x="492" y="75"/>
			<point x="483" y="193" type="curve"/>
			<point x="462" y="212" type="line"/>
			<point x="453" y="129"/>
			<point x="388" y="69"/>
			<point x="308" y="69" type="curve" smooth="yes"/>
			<point x="217" y="69"/>
			<point x="155" y="143"/>
			<point x="155" y="244" type="curve" smooth="yes"/>
			<point x="155" y="348"/>
			<point x="216" y="421"/>
			<point x="305" y="421" type="curve" smooth="yes"/>
			<point x="393" y="421"/>
			<point x="454" y="346"/>
			<point x="454" y="235" type="curve" smooth="yes"/>
			<point x="454" y="131" type="line"/>
			<point x="455" y="127" type="line"/>
			<point x="455" y="0" type="line"/>
		</contour>
	</outline>
</glyph>
<glyph name="hbar" format="2">
	<unicode hex="0127"/>
	<advance width="599"/>
	<outline>
		<contour>
			<point x="334" y="564" type="line"/>
			<point x="334" y="641" type="line"/>
			<point x="9" y="641" type="line"/>
			<point x="9" y="564" type="line"/>
		</contour>
		<contour>
			<point x="529" y="0" type="line"/>
			<point x="529" y="289" type="line" smooth="yes"/>
			<point x="529" y="427"/>
			<point x="461" y="505"/>
			<point x="347" y="505" type="curve" smooth="yes"/>
			<point x="258" y="505"/>
			<point x="187" y="452"/>
			<point x="171" y="336" type="curve"/>
			<point x="185" y="336" type="line"/>
			<point x="185" y="720" type="line"/>
			<point x="85" y="720" type="line"/>
			<point x="85" y="0" type="line"/>
			<point x="185" y="0" type="line"/>
			<point x="185" y="223" type="line" smooth="yes"/>
			<point x="185" y="346"/>
			<point x="240" y="419"/>
			<point x="322" y="419" type="curve" smooth="yes"/>
			<point x="389" y="419"/>
			<point x="429" y="369"/>
			<point x="429" y="278" type="curve" smooth="yes"/>
			<point x="429" y="0" type="line"/>
		</contour>
	</outline>
</glyph>
<glyph name="IJ" format="2">
	<unicode hex="0132"/>
	<advance width="693"/>
	<outline>
		<contour>
			<point x="189" y="329" type="line"/>
			<point x="189" y="715" type="line"/>
			<point x="86" y="715" type="line"/>
			<point x="86" y="329" type="line"/>
		</contour>
		<contour>
			<point x="608" y="715" type="line"/>
			<point x="505" y="715" type="line"/>
			<point x="505" y="275" type="line" smooth="yes"/>
			<point x="505" y="146"/>
			<point x="454" y="77"/>
			<point x="346" y="77" type="curve" smooth="yes"/>
			<point x="251" y="77"/>
			<point x="199" y="133"/>
			<point x="188" y="244" type="curve"/>
			<point x="86" y="231" type="line"/>
			<point x="99" y="74"/>
			<point x="195" y="-16"/>
			<point x="346" y="-16" type="curve" smooth="yes"/>
			<point x="514" y="-16"/>
			<point x="608" y="89"/>
			<point x="608" y="275" type="curve" smooth="yes"/>
		</contour>
	</outline>
	<anchor name="top.UC_2" x="581" y="750"/>
	<anchor name="top.UC_1" x="140" y="750"/>
</glyph>
<glyph name="eng" format="2">
	<unicode hex="014B"/>
	<advance width="593"/>
	<outline>
		<contour>
			<point x="335" y="-194" type="line"/>
			<point x="399" y="-194" type="line" smooth="yes"/>
			<point x="483" y="-194"/>
			<point x="522" y="-152"/>
			<point x="522" y="-65" type="curve" smooth="yes"/>
			<point x="522" y="297" type="line" smooth="yes"/>
			<point x="522" y="437"/>
			<point x="453" y="513"/>
			<point x="341" y="513" type="curve" smooth="yes"/>
			<point x="256" y="513"/>
			<point x="181" y="463"/>
			<point x="164" y="344" type="curve"/>
			<point x="178" y="344" type="line"/>
			<point x="178" y="497" type="line"/>
			<point x="79" y="497" type="line"/>
			<point x="79" y="0" type="line"/>
			<point x="179" y="0" type="line"/>
			<point x="179" y="231" type="line" smooth="yes"/>
			<point x="179" y="369"/>
			<point x="245" y="427"/>
			<point x="316" y="427" type="curve" smooth="yes"/>
			<point x="381" y="427"/>
			<point x="422" y="380"/>
			<point x="422" y="286" type="curve" smooth="yes"/>
			<point x="422" y="-51" type="line" smooth="yes"/>
			<point x="422" y="-94"/>
			<point x="407" y="-111"/>
			<point x="368" y="-111" type="curve" smooth="yes"/>
			<point x="335" y="-111" type="line"/>
		</contour>
	</outline>
</glyph>
<glyph name="oe" format="2">
	<unicode hex="0153"/>
	<advance width="978"/>
	<outline>
		<contour>
			<point x="50" y="248" type="curve" smooth="yes"/>
			<point x="50" y="95"/>
			<point x="154" y="-16"/>
			<point x="299" y="-16" type="curve" smooth="yes"/>
			<point x="440" y="-16"/>
			<point x="539" y="95"/>
			<point x="539" y="248" type="curve" smooth="yes"/>
			<point x="539" y="402"/>
			<point x="440" y="513"/>
			<point x="299" y="513" type="curve" smooth="yes"/>
			<point x="154" y="513"/>
			<point x="50" y="402"/>
		</contour>
		<contour>
			<point x="155" y="248" type="curve" smooth="yes"/>
			<point x="155" y="354"/>
			<point x="215" y="427"/>
			<point x="303" y="427" type="curve" smooth="yes"/>
			<point x="393" y="427"/>
			<point x="453" y="354"/>
			<point x="453" y="248" type="curve" smooth="yes"/>
			<point x="453" y="144"/>
			<point x="393" y="69"/>
			<point x="303" y="69" type="curve" smooth="yes"/>
			<point x="215" y="69"/>
			<point x="155" y="144"/>
		</contour>
		<contour>
			<point x="861" y="146" type="line"/>
			<point x="824" y="93"/>
			<point x="776" y="67"/>
			<point x="716" y="67" type="curve" smooth="yes"/>
			<point x="615" y="67"/>
			<point x="553" y="141"/>
			<point x="553" y="250" type="curve" smooth="yes"/>
			<point x="553" y="358"/>
			<point x="611" y="430"/>
			<point x="696" y="430" type="curve" smooth="yes"/>
			<point x="778" y="430"/>
			<point x="828" y="363"/>
			<point x="828" y="256" type="curve" smooth="yes"/>
			<point x="828" y="246" type="line"/>
			<point x="928" y="246" type="line"/>
			<point x="928" y="252" type="line" smooth="yes"/>
			<point x="928" y="404"/>
			<point x="832" y="513"/>
			<point x="697" y="513" type="curve" smooth="yes"/>
			<point x="560" y="513"/>
			<point x="461" y="400"/>
			<point x="461" y="248" type="curve" smooth="yes"/>
			<point x="461" y="95"/>
			<point x="563" y="-16"/>
			<point x="711" y="-16" type="curve" smooth="yes"/>
			<point x="795" y="-16"/>
			<point x="868" y="17"/>
			<point x="920" y="83" type="curve"/>
		</contour>
		<contour>
			<point x="928" y="216" type="line"/>
			<point x="928" y="252" type="line"/>
			<point x="912" y="288" type="line"/>
			<point x="521" y="288" type="line"/>
			<point x="521" y="216" type="line"/>
		</contour>
	</outline>
</glyph>
<glyph name="ohorn" format="2">
	<unicode hex="01A1"/>
	<advance width="613"/>
	<outline>
		<contour>
			<point x="303" y="-16" type="curve" smooth="yes"/>
			<point x="453" y="-16"/>
			<point x="558" y="95"/>
			<point x="558" y="248" type="curve" smooth="yes"/>
			<point x="558" y="324"/>
			<point x="532" y="392"/>
			<point x="485" y="440" type="curve"/>
			<point x="479" y="430" type="line"/>
			<point x="562" y="443"/>
			<point x="601" y="489"/>
			<point x="601" y="578" type="curve" smooth="yes"/>
			<point x="601" y="616" type="line"/>
			<point x="513" y="616" type="line"/>
			<point x="513" y="572" type="line" smooth="yes"/>
			<point x="513" y="519"/>
			<point x="488" y="497"/>
			<point x="435" y="497" type="curve" smooth="yes"/>
			<point x="414" y="497"/>
			<point x="396" y="501"/>
			<point x="386" y="503" type="curve" smooth="yes"/>
			<point x="355" y="509"/>
			<point x="330" y="513"/>
			<point x="303" y="513" type="curve" smooth="yes"/>
			<point x="155" y="513"/>
			<point x="50" y="402"/>
			<point x="50" y="248" type="curve" smooth="yes"/>
			<point x="50" y="95"/>
			<point x="155" y="-16"/>
		</contour>
		<contour>
			<point x="303" y="69" type="curve" smooth="yes"/>
			<point x="215" y="69"/>
			<point x="155" y="144"/>
			<point x="155" y="248" type="curve" smooth="yes"/>
			<point x="155" y="354"/>
			<point x="215" y="427"/>
			<point x="303" y="427" type="curve" smooth="yes"/>
			<point x="392" y="427"/>
			<point x="453" y="354"/>
			<point x="453" y="248" type="curve" smooth="yes"/>
			<point x="453" y="144"/>
			<point x="393" y="69"/>
		</contour>
	</outline>
	<anchor name="bottom.LC" x="303" y="-50"/>
	<anchor name="top.LC" x="303" y="544"/>
</glyph>
<glyph name="tildecomb" format="2">
	<unicode hex="0303"/>
	<outline>
		<contour>
			<point x="102" y="728" type="line"/>
			<point x="97" y="686"/>
			<point x="83" y="666"/>
			<point x="64" y="666" type="curve" smooth="yes"/>
			<point x="51" y="666"/>
			<point x="39" y="674"/>
			<point x="16" y="692" type="curve" smooth="yes"/>
			<point x="-10" y="712"/>
			<point x="-39" y="727"/>
			<point x="-70" y="727" type="curve" smooth="yes"/>
			<point x="-116" y="727"/>
			<point x="-156" y="696"/>
			<point x="-169" y="621" type="curve"/>
			<point x="-103" y="592" type="line"/>
			<point x="-97" y="634"/>
			<point x="-83" y="654"/>
			<point x="-65" y="654" type="curve" smooth="yes"/>
			<point x="-52" y="654"/>
			<point x="-39" y="646"/>
			<point x="-17" y="628" type="curve" smooth="yes"/>
			<point x="9" y="608"/>
			<point x="38" y="592"/>
			<point x="70" y="592" type="curve" smooth="yes"/>
			<point x="116" y="592"/>
			<point x="156" y="624"/>
			<point x="169" y="699" type="curve"/>
		</contour>
	</outline>
	<anchor name="_top.LC" x="0" y="544"/>
</glyph>
<glyph name="macroncomb" format="2">
	<unicode hex="0304"/>
	<outline>
		<contour>
			<point x="139" y="614" type="line"/>
			<point x="139" y="688" type="line"/>
			<point x="-138" y="688" type="line"/>
			<point x="-138" y="614" type="line"/>
		</contour>
	</outline>
	<anchor name="_top.LC" x="0" y="544"/>
</glyph>
<glyph name="brevecomb" format="2">
	<unicode hex="0306"/>
	<outline>
		<contour>
			<point x="0" y="583" type="curve"/>
			<point x="80" y="583"/>
			<point x="146" y="643"/>
			<point x="154" y="739" type="curve"/>
			<point x="76" y="739" type="line"/>
			<point x="69" y="681"/>
			<point x="39" y="654"/>
			<point x="0" y="654" type="curve" smooth="yes"/>
			<point x="-38" y="654"/>
			<point x="-69" y="681"/>
			<point x="-76" y="739" type="curve"/>
			<point x="-154" y="739" type="line"/>
			<point x="-145" y="643"/>
			<point x="-80" y="583"/>
		</contour>
	</outline>
	<anchor name="_top.LC" x="0" y="544"/>
</glyph>
<glyph name="hookabovecomb" format="2">
	<unicode hex="0309"/>
	<outline>
		<contour>
			<point x="-5" y="558" type="line"/>
			<point x="64" y="586"/>
			<point x="103" y="629"/>
			<point x="103" y="678" type="curve" smooth="yes"/>
			<point x="103" y="730"/>
			<point x="59" y="770"/>
			<point x="-2" y="770" type="curve" smooth="yes"/>
			<point x="-38" y="770"/>
			<point x="-70" y="757"/>
			<point x="-98" y="730" type="curve"/>
			<point x="-61" y="681" type="line"/>
			<point x="-42" y="698"/>
			<point x="-25" y="705"/>
			<point x="-8" y="705" type="curve" smooth="yes"/>
			<point x="14" y="705"/>
			<point x="27" y="692"/>
			<point x="27" y="672" type="curve" smooth="yes"/>
			<point x="27" y="648"/>
			<point x="9" y="628"/>
			<point x="-31" y="609" type="curve"/>
		</contour>
	</outline>
	<anchor name="_top.LC" x="0" y="544"/>
</glyph>
<glyph name="cedillacomb" format="2">
	<unicode hex="0327"/>
	<outline>
		<contour>
			<point x="-126" y="-220" type="line"/>
			<point x="-101" y="-243"/>
			<point x="-67" y="-258"/>
			<point x="-27" y="-258" type="curve" smooth="yes"/>
			<point x="54" y="-258"/>
			<point x="100" y="-211"/>
			<point x="100" y="-151" type="curve" smooth="yes"/>
			<point x="100" y="-90"/>
			<point x="41" y="-48"/>
			<point x="-31" y="-49" type="curve"/>
			<point x="0" y="-79" type="line"/>
			<point x="24" y="10" type="line"/>
			<point x="-37" y="10" type="line"/>
			<point x="-71" y="-114" type="line"/>
			<point x="-57" y="-110"/>
			<point x="-43" y="-108"/>
			<point x="-31" y="-108" type="curve" smooth="yes"/>
			<point x="4" y="-108"/>
			<point x="26" y="-126"/>
			<point x="26" y="-152" type="curve" smooth="yes"/>
			<point x="26" y="-178"/>
			<point x="5" y="-194"/>
			<point x="-24" y="-194" type="curve" smooth="yes"/>
			<point x="-50" y="-194"/>
			<point x="-76" y="-183"/>
			<point x="-92" y="-166" type="curve"/>
		</contour>
	</outline>
	<anchor name="_bottom.LC" x="0" y="-50"/>
</glyph>
<glyph name="Dje" format="2">
	<unicode hex="0402"/>
	<advance width="699"/>
	<outline>
		<contour>
			<point x="14" y="625" type="line"/>
			<point x="509" y="625" type="line"/>
			<point x="509" y="715" type="line"/>
			<point x="14" y="715" type="line"/>
		</contour>
		<contour>
			<point x="346" y="0" type="line"/>
			<point x="403" y="0" type="line" smooth="yes"/>
			<point x="568" y="0"/>
			<point x="657" y="77"/>
			<point x="657" y="223" type="curve" smooth="yes"/>
			<point x="657" y="363"/>
			<point x="568" y="445"/>
			<point x="416" y="445" type="curve" smooth="yes"/>
			<point x="331" y="445"/>
			<point x="258" y="422"/>
			<point x="199" y="377" type="curve"/>
			<point x="227" y="303" type="line"/>
			<point x="277" y="335"/>
			<point x="341" y="354"/>
			<point x="404" y="354" type="curve" smooth="yes"/>
			<point x="499" y="354"/>
			<point x="552" y="305"/>
			<point x="552" y="220" type="curve" smooth="yes"/>
			<point x="552" y="134"/>
			<point x="499" y="90"/>
			<point x="392" y="90" type="curve" smooth="yes"/>
			<point x="346" y="90" type="line"/>
		</contour>
		<contour>
			<point x="145" y="0" type="line"/>
			<point x="248" y="0" type="line"/>
			<point x="248" y="673" type="line"/>
			<point x="145" y="673" type="line"/>
		</contour>
	</outline>
</glyph>
<glyph name="Nje" format="2">
	<unicode hex="040A"/>
	<advance width="1084"/>
	<outline>
		<contour>
			<point x="99" y="0" type="line"/>
			<point x="202" y="0" type="line"/>
			<point x="202" y="715" type="line"/>
			<point x="99" y="715" type="line"/>
		</contour>
		<contour>
			<point x="167" y="327" type="line"/>
			<point x="564" y="327" type="line"/>
			<point x="564" y="417" type="line"/>
			<point x="167" y="417" type="line"/>
		</contour>
		<contour>
			<point x="530" y="0" type="line"/>
			<point x="808" y="0" type="line" smooth="yes"/>
			<point x="947" y="0"/>
			<point x="1040" y="84"/>
			<point x="1040" y="209" type="curve" smooth="yes"/>
			<point x="1040" y="335"/>
			<point x="948" y="417"/>
			<point x="808" y="417" type="curve" smooth="yes"/>
			<point x="577" y="417" type="line"/>
			<point x="577" y="328" type="line"/>
			<point x="808" y="328" type="line" smooth="yes"/>
			<point x="886" y="328"/>
			<point x="935" y="283"/>
			<point x="935" y="209" type="curve" smooth="yes"/>
			<point x="935" y="135"/>
			<point x="886" y="89"/>
			<point x="808" y="89" type="curve" smooth="yes"/>
			<point x="586" y="89" type="line"/>
			<point x="633" y="44" type="line"/>
			<point x="633" y="715" type="line"/>
			<point x="530" y="715" type="line"/>
		</contour>
	</outline>
</glyph>
<glyph name="Ya" format="2">
	<unicode hex="042F"/>
	<advance width="682"/>
	<outline>
		<contour>
			<point x="480" y="0" type="line"/>
			<point x="583" y="0" type="line"/>
			<point x="583" y="715" type="line"/>
			<point x="316" y="715" type="line" smooth="yes"/>
			<point x="178" y="715"/>
			<point x="86" y="632"/>
			<point x="86" y="507" type="curve" smooth="yes"/>
			<point x="86" y="382"/>
			<point x="178" y="298"/>
			<point x="316" y="298" type="curve" smooth="yes"/>
			<point x="497" y="298" type="line"/>
			<point x="497" y="387" type="line"/>
			<point x="316" y="387" type="line" smooth="yes"/>
			<point x="239" y="387"/>
			<point x="190" y="431"/>
			<point x="190" y="507" type="curve" smooth="yes"/>
			<point x="190" y="581"/>
			<point x="239" y="626"/>
			<point x="316" y="626" type="curve" smooth="yes"/>
			<point x="480" y="626" type="line"/>
		</contour>
		<contour>
			<point x="43" y="0" type="line"/>
			<point x="164" y="0" type="line"/>
			<point x="381" y="333" type="line"/>
			<point x="268" y="333" type="line"/>
		</contour>
	</outline>
</glyph>
<glyph name="ve" format="2">
	<unicode hex="0432"/>
	<advance width="553"/>
	<outline>
		<contour>
			<point x="79" y="0" type="line"/>
			<point x="330" y="0" type="line" smooth="yes"/>
			<point x="434" y="0"/>
			<point x="508" y="59"/>
			<point x="508" y="144" type="curve" smooth="yes"/>
			<point x="508" y="201"/>
			<point x="471" y="246"/>
			<point x="408" y="265" type="curve"/>
			<point x="408" y="256" type="line"/>
			<point x="458" y="274"/>
			<point x="487" y="314"/>
			<point x="487" y="365" type="curve" smooth="yes"/>
			<point x="487" y="447"/>
			<point x="418" y="497"/>
			<point x="318" y="497" type="curve" smooth="yes"/>
			<point x="79" y="497" type="line"/>
		</contour>
		<contour>
			<point x="149" y="78" type="line"/>
			<point x="174" y="53" type="line"/>
			<point x="174" y="444" type="line"/>
			<point x="149" y="419" type="line"/>
			<point x="310" y="419" type="line" smooth="yes"/>
			<point x="359" y="419"/>
			<point x="386" y="400"/>
			<point x="386" y="357" type="curve" smooth="yes"/>
			<point x="386" y="316"/>
			<point x="356" y="294"/>
			<point x="310" y="294" type="curve" smooth="yes"/>
			<point x="136" y="294" type="line"/>
			<point x="136" y="221" type="line"/>
			<point x="322" y="221" type="line" smooth="yes"/>
			<point x="377" y="221"/>
			<point x="408" y="194"/>
			<point x="408" y="149" type="curve" smooth="yes"/>
			<point x="408" y="104"/>
			<point x="376" y="78"/>
			<point x="322" y="78" type="curve" smooth="yes"/>
		</contour>
	</outline>
</glyph>
<glyph name="ze" format="2">
	<unicode hex="0437"/>
	<advance width="511"/>
	<outline>
		<contour>
			<point x="252" y="-16" type="curve" smooth="yes"/>
			<point x="372" y="-16"/>
			<point x="460" y="51"/>
			<point x="460" y="143" type="curve" smooth="yes"/>
			<point x="460" y="204"/>
			<point x="421" y="250"/>
			<point x="351" y="271" type="curve"/>
			<point x="351" y="254" type="line"/>
			<point x="415" y="274"/>
			<point x="447" y="312"/>
			<point x="447" y="370" type="curve" smooth="yes"/>
			<point x="447" y="454"/>
			<point x="365" y="513"/>
			<point x="247" y="513" type="curve" smooth="yes"/>
			<point x="162" y="513"/>
			<point x="95" y="482"/>
			<point x="41" y="420" type="curve"/>
			<point x="100" y="358" type="line"/>
			<point x="136" y="406"/>
			<point x="185" y="430"/>
			<point x="243" y="430" type="curve" smooth="yes"/>
			<point x="306" y="430"/>
			<point x="347" y="403"/>
			<point x="347" y="358" type="curve" smooth="yes"/>
			<point x="347" y="316"/>
			<point x="315" y="293"/>
			<point x="258" y="293" type="curve" smooth="yes"/>
			<point x="158" y="293" type="line"/>
			<point x="158" y="217" type="line"/>
			<point x="257" y="217" type="line" smooth="yes"/>
			<point x="325" y="217"/>
			<point x="359" y="194"/>
			<point x="359" y="148" type="curve" smooth="yes"/>
			<point x="359" y="97"/>
			<point x="315" y="67"/>
			<point x="243" y="67" type="curve" smooth="yes"/>
			<point x="178" y="67"/>
			<point x="127" y="92"/>
			<point x="90" y="142" type="curve"/>
			<point x="30" y="79" type="line"/>
			<point x="84" y="15"/>
			<point x="156" y="-16"/>
		</contour>
	</outline>
</glyph>
<glyph name="icyr" format="2">
	<unicode hex="0438"/>
	<advance width="599"/>
	<outline>
		<contour>
			<point x="79" y="0" type="line"/>
			<point x="167" y="0" type="line"/>
			<point x="429" y="358" type="line"/>
			<point x="422" y="366" type="line"/>
			<point x="422" y="0" type="line"/>
			<point x="520" y="0" type="line"/>
			<point x="520" y="497" type="line"/>
			<point x="432" y="497" type="line"/>
			<point x="169" y="137" type="line"/>
			<point x="176" y="130" type="line"/>
			<point x="176" y="497" type="line"/>
			<point x="79" y="497" type="line"/>
		</contour>
	</outline>
	<anchor name="top.LC" x="307" y="544"/>
</glyph>
<glyph name="el" format="2">
	<unicode hex="043B"/>
	<advance width="577"/>
	<outline>
		<contour>
			<point x="30" y="0" type="line"/>
			<point x="83" y="0" type="line" smooth="yes"/>
			<point x="165" y="0"/>
			<point x="203" y="32"/>
			<point x="211" y="127" type="curve" smooth="yes"/>
			<point x="239" y="430" type="line"/>
			<point x="221" y="414" type="line"/>
			<point x="415" y="414" type="line"/>
			<point x="398" y="431" type="line"/>
			<point x="398" y="0" type="line"/>
			<point x="498" y="0" type="line"/>
			<point x="498" y="497" type="line"/>
			<point x="147" y="497" type="line"/>
			<point x="118" y="145" type="line" smooth="yes"/>
			<point x="114" y="100"/>
			<point x="99" y="84"/>
			<point x="69" y="84" type="curve" smooth="yes"/>
			<point x="30" y="84" type="line"/>
		</contour>
	</outline>
</glyph>
<glyph name="em" format="2">
	<unicode hex="043C"/>
	<advance width="705"/>
	<outline>
		<contour>
			<point x="79" y="0" type="line"/>
			<point x="169" y="0" type="line"/>
			<point x="169" y="367" type="line"/>
			<point x="159" y="365" type="line"/>
			<point x="312" y="48" type="line"/>
			<point x="387" y="48" type="line"/>
			<point x="544" y="373" type="line"/>
			<point x="533" y="375" type="line"/>
			<point x="533" y="0" type="line"/>
			<point x="626" y="0" type="line"/>
			<point x="626" y="497" type="line"/>
			<point x="515" y="497" type="line"/>
			<point x="338" y="129" type="line"/>
			<point x="365" y="129" type="line"/>
			<point x="187" y="497" type="line"/>
			<point x="79" y="497" type="line"/>
		</contour>
	</outline>
</glyph>
<glyph name="pe" format="2">
	<unicode hex="043F"/>
	<advance width="588"/>
	<outline>
		<contour>
			<point x="79" y="0" type="line"/>
			<point x="179" y="0" type="line"/>
			<point x="179" y="441" type="line"/>
			<point x="152" y="414" type="line"/>
			<point x="436" y="414" type="line"/>
			<point x="409" y="441" type="line"/>
			<point x="409" y="0" type="line"/>
			<point x="509" y="0" type="line"/>
			<point x="509" y="497" type="line"/>
			<point x="79" y="497" type="line"/>
		</contour>
	</outline>
</glyph>
<glyph name="ef" format="2">
	<unicode hex="0444"/>
	<advance width="756"/>
	<outline>
		<contour>
			<point x="328" y="-204" type="line"/>
			<point x="427" y="-204" type="line"/>
			<point x="427" y="21" type="line"/>
			<point x="425" y="36" type="line"/>
			<point x="425" y="452" type="line"/>
			<point x="427" y="468" type="line"/>
			<point x="427" y="720" type="line"/>
			<point x="328" y="720" type="line"/>
			<point x="328" y="468" type="line"/>
			<point x="330" y="452" type="line"/>
			<point x="330" y="36" type="line"/>
			<point x="328" y="21" type="line"/>
		</contour>
		<contour>
			<point x="361" y="-16" type="curve" smooth="yes"/>
			<point x="394" y="-16" type="line" smooth="yes"/>
			<point x="585" y="-16"/>
			<point x="705" y="86"/>
			<point x="705" y="248" type="curve" smooth="yes"/>
			<point x="705" y="411"/>
			<point x="585" y="513"/>
			<point x="394" y="513" type="curve" smooth="yes"/>
			<point x="361" y="513" type="line" smooth="yes"/>
			<point x="170" y="513"/>
			<point x="50" y="411"/>
			<point x="50" y="248" type="curve" smooth="yes"/>
			<point x="50" y="86"/>
			<point x="170" y="-16"/>
		</contour>
		<contour>
			<point x="361" y="69" type="line"/>
			<point x="223" y="69"/>
			<point x="152" y="130"/>
			<point x="152" y="248" type="curve" smooth="yes"/>
			<point x="152" y="367"/>
			<point x="222" y="428"/>
			<point x="361" y="428" type="curve" smooth="yes"/>
			<point x="394" y="428" type="line" smooth="yes"/>
			<point x="532" y="428"/>
			<point x="604" y="366"/>
			<point x="604" y="248" type="curve" smooth="yes"/>
			<point x="604" y="130"/>
			<point x="533" y="69"/>
			<point x="394" y="69" type="curve" smooth="yes"/>
		</contour>
	</outline>
</glyph>
<glyph name="hard" format="2">
	<unicode hex="044A"/>
	<advance width="571"/>
	<outline>
		<contour>
			<point x="145" y="0" type="line"/>
			<point x="374" y="0" type="line" smooth="yes"/>
			<point x="482" y="0"/>
			<point x="556" y="68"/>
			<point x="556" y="164" type="curve" smooth="yes"/>
			<point x="556" y="262"/>
			<point x="484" y="325"/>
			<point x="374" y="325" type="curve" smooth="yes"/>
			<point x="207" y="325" type="line"/>
			<point x="207" y="243" type="line"/>
			<point x="370" y="243" type="line" smooth="yes"/>
			<point x="423" y="243"/>
			<point x="455" y="213"/>
			<point x="455" y="163" type="curve" smooth="yes"/>
			<point x="455" y="111"/>
			<point x="423" y="81"/>
			<point x="370" y="81" type="curve" smooth="yes"/>
			<point x="226" y="81" type="line"/>
			<point x="245" y="65" type="line"/>
			<point x="245" y="497" type="line"/>
			<point x="35" y="497" type="line"/>
			<point x="35" y="414" type="line"/>
			<point x="161" y="414" type="line"/>
			<point x="145" y="430" type="line"/>
		</contour>
	</outline>
</glyph>
<glyph name="ya" format="2">
	<unicode hex="044F"/>
	<advance width="551"/>
	<outline>
		<contour>
			<point x="43" y="0" type="line"/>
			<point x="155" y="0" type="line"/>
			<point x="319" y="225" type="line"/>
			<point x="214" y="225" type="line"/>
		</contour>
		<contour>
			<point x="377" y="0" type="line"/>
			<point x="472" y="0" type="line"/>
			<point x="472" y="497" type="line"/>
			<point x="240" y="497" type="line" smooth="yes"/>
			<point x="134" y="497"/>
			<point x="60" y="433"/>
			<point x="60" y="342" type="curve" smooth="yes"/>
			<point x="60" y="248"/>
			<point x="131" y="186"/>
			<point x="238" y="186" type="curve" smooth="yes"/>
			<point x="425" y="186" type="line"/>
			<point x="425" y="264" type="line"/>
			<point x="245" y="264" type="line" smooth="yes"/>
			<point x="193" y="264"/>
			<point x="161" y="292"/>
			<point x="161" y="341" type="curve" smooth="yes"/>
			<point x="161" y="390"/>
			<point x="192" y="418"/>
			<point x="245" y="418" type="curve" smooth="yes"/>
			<point x="395" y="418" type="line"/>
			<point x="377" y="437" type="line"/>
		</contour>
	</outline>
</glyph>
<glyph name="nje" format="2">
	<unicode hex="045A"/>
	<advance width="805"/>
	<outline>
		<contour>
			<point x="393" y="0" type="line"/>
			<point x="612" y="0" type="line" smooth="yes"/>
			<point x="714" y="0"/>
			<point x="790" y="68"/>
			<point x="790" y="164" type="curve" smooth="yes"/>
			<point x="790" y="260"/>
			<point x="719" y="325"/>
			<point x="612" y="325" type="curve" smooth="yes"/>
			<point x="467" y="325" type="line"/>
			<point x="467" y="243" type="line"/>
			<point x="607" y="243" type="line" smooth="yes"/>
			<point x="659" y="243"/>
			<point x="691" y="213"/>
			<point x="691" y="163" type="curve" smooth="yes"/>
			<point x="691" y="112"/>
			<point x="659" y="81"/>
			<point x="607" y="81" type="curve" smooth="yes"/>
			<point x="475" y="81" type="line"/>
			<point x="493" y="62" type="line"/>
			<point x="493" y="497" type="line"/>
			<point x="393" y="497" type="line"/>
		</contour>
		<contour>
			<point x="79" y="0" type="line"/>
			<point x="178" y="0" type="line"/>
			<point x="178" y="497" type="line"/>
			<point x="79" y="497" type="line"/>
		</contour>
		<contour>
			<point x="148" y="223" type="line"/>
			<point x="425" y="223" type="line"/>
			<point x="425" y="305" type="line"/>
			<point x="148" y="305" type="line"/>
		</contour>
	</outline>
</glyph>
<glyph name="fita" format="2">
	<unicode hex="0473"/>
	<advance width="608"/>
	<outline>
		<contour>
			<point x="100" y="214" type="line"/>
			<point x="506" y="214" type="line"/>
			<point x="506" y="289" type="line"/>
			<point x="100" y="289" type="line"/>
		</contour>
		<contour>
			<point x="303" y="-16" type="curve" smooth="yes"/>
			<point x="452" y="-16"/>
			<point x="558" y="94"/>
			<point x="558" y="248" type="curve" smooth="yes"/>
			<point x="558" y="403"/>
			<point x="452" y="513"/>
			<point x="303" y="513" type="curve" smooth="yes"/>
			<point x="156" y="513"/>
			<point x="50" y="403"/>
			<point x="50" y="248" type="curve" smooth="yes"/>
			<point x="50" y="94"/>
			<point x="156" y="-16"/>
		</contour>
		<contour>
			<point x="303" y="66" type="curve" smooth="yes"/>
			<point x="211" y="66"/>
			<point x="147" y="139"/>
			<point x="147" y="248" type="curve" smooth="yes"/>
			<point x="147" y="358"/>
			<point x="211" y="431"/>
			<point x="303" y="431" type="curve" smooth="yes"/>
			<point x="397" y="431"/>
			<point x="461" y="358"/>
			<point x="461" y="248" type="curve" smooth="yes"/>
			<point x="461" y="140"/>
			<point x="397" y="66"/>
		</contour>
	</outline>
</glyph>
<glyph name="Izhitsa" format="2">
	<unicode hex="0474"/>
	<advance width="752"/>
	<outline>
		<contour>
			<point x="302" y="0" type="line"/>
			<point x="408" y="0" type="line"/>
			<point x="611" y="581" type="line" smooth="yes"/>
			<point x="623" y="615"/>
			<point x="635" y="625"/>
			<point x="661" y="625" type="curve" smooth="yes"/>
			<point x="716" y="625" type="line"/>
			<point x="716" y="715" type="line"/>
			<point x="643" y="715" type="line" smooth="yes"/>
			<point x="577" y="715"/>
			<point x="546" y="693"/>
			<point x="522" y="618" type="curve" smooth="yes"/>
			<point x="341" y="70" type="line"/>
			<point x="373" y="70" type="line"/>
			<point x="150" y="715" type="line"/>
			<point x="39" y="715" type="line"/>
		</contour>
	</outline>
</glyph>
<glyph name="izhitsa" format="2">
	<unicode hex="0475"/>
	<advance width="576"/>
	<outline>
		<contour>
			<point x="229" y="0" type="line"/>
			<point x="327" y="0" type="line"/>
			<point x="471" y="379" type="line" smooth="yes"/>
			<point x="481" y="404"/>
			<point x="491" y="412"/>
			<point x="512" y="412" type="curve" smooth="yes"/>
			<point x="556" y="412" type="line"/>
			<point x="556" y="497" type="line"/>
			<point x="497" y="497" type="line" smooth="yes"/>
			<point x="436" y="497"/>
			<point x="411" y="478"/>
			<point x="391" y="421" type="curve" smooth="yes"/>
			<point x="265" y="61" type="line"/>
			<point x="295" y="61" type="line"/>
			<point x="134" y="497" type="line"/>
			<point x="29" y="497" type="line"/>
		</contour>
	</outline>
</glyph>
<glyph name="Germandbls" format="2">
	<unicode hex="1E9E"/>
	<advance width="742"/>
	<outline>
		<contour>
			<point x="251" y="71" type="line"/>
			<point x="307" y="16"/>
			<point x="385" y="-16"/>
			<point x="466" y="-16" type="curve" smooth="yes"/>
			<point x="608" y="-16"/>
			<point x="715" y="82"/>
			<point x="715" y="209" type="curve" smooth="yes"/>
			<point x="715" y="347"/>
			<point x="590" y="451"/>
			<point x="451" y="417" type="curve"/>
			<point x="474" y="406" type="line"/>
			<point x="657" y="630" type="line"/>
			<point x="657" y="715" type="line"/>
			<point x="375" y="715" type="line" smooth="yes"/>
			<point x="194" y="715"/>
			<point x="86" y="604"/>
			<point x="86" y="417" type="curve" smooth="yes"/>
			<point x="86" y="0" type="line"/>
			<point x="189" y="0" type="line"/>
			<point x="189" y="417" type="line" smooth="yes"/>
			<point x="189" y="553"/>
			<point x="257" y="629"/>
			<point x="375" y="629" type="curve" smooth="yes"/>
			<point x="608" y="629" type="line"/>
			<point x="574" y="665" type="line"/>
			<point x="330" y="371" type="line"/>
			<point x="389" y="319" type="line"/>
			<point x="414" y="339"/>
			<point x="440" y="349"/>
			<point x="473" y="349" type="curve" smooth="yes"/>
			<point x="555" y="349"/>
			<point x="609" y="294"/>
			<point x="609" y="211" type="curve" smooth="yes"/>
			<point x="609" y="129"/>
			<point x="548" y="70"/>
			<point x="465" y="70" type="curve" smooth="yes"/>
			<point x="408" y="70"/>
			<point x="357" y="95"/>
			<point x="316" y="142" type="curve"/>
		</contour>
	</outline>
</glyph>
<glyph name="guilsinglleft" format="2">
	<unicode hex="2039"/>
	<advance width="309"/>
	<outline>
		<contour>
			<point x="164" y="33" type="line"/>
			<point x="274" y="33" type="line"/>
			<point x="135" y="248" type="line"/>
			<point x="274" y="463" type="line"/>
			<point x="164" y="463" type="line"/>
			<point x="27" y="248" type="line"/>
		</contour>
	</outline>
</glyph>
<glyph name="fraction" format="2">
	<unicode hex="2044"/>
	<advance width="196"/>
	<outline>
		<contour>
			<point x="-79" y="0" type="line"/>
			<point x="381" y="715" type="line"/>
			<point x="275" y="715" type="line"/>
			<point x="-185" y="0" type="line"/>
		</contour>
	</outline>
</glyph>
<glyph name="dong" format="2">
	<unicode hex="20AB"/>
	<advance width="634"/>
	<outline>
		<contour>
			<point x="278" y="142" type="curve" smooth="yes"/>
			<point x="374" y="142"/>
			<point x="439" y="211"/>
			<point x="432" y="305" type="curve"/>
			<point x="412" y="322" type="line"/>
			<point x="406" y="262"/>
			<point x="359" y="219"/>
			<point x="300" y="219" type="curve" smooth="yes"/>
			<point x="235" y="219"/>
			<point x="190" y="272"/>
			<point x="190" y="348" type="curve" smooth="yes"/>
			<point x="190" y="424"/>
			<point x="235" y="475"/>
			<point x="299" y="475" type="curve" smooth="yes"/>
			<point x="365" y="475"/>
			<point x="410" y="420"/>
			<point x="410" y="340" type="curve" smooth="yes"/>
			<point x="410" y="254" type="line"/>
			<point x="411" y="250" type="line"/>
			<point x="411" y="154" type="line"/>
			<point x="503" y="154" type="line"/>
			<point x="503" y="715" type="line"/>
			<point x="410" y="715" type="line"/>
			<point x="410" y="414" type="line"/>
			<point x="431" y="414" type="line"/>
			<point x="420" y="496"/>
			<point x="359" y="550"/>
			<point x="278" y="550" type="curve" smooth="yes"/>
			<point x="173" y="550"/>
			<point x="93" y="461"/>
			<point x="93" y="345" type="curve" smooth="yes"/>
			<point x="93" y="229"/>
			<point x="173" y="142"/>
		</contour>
		<contour>
			<point x="94" y="1" type="line"/>
			<point x="503" y="1" type="line"/>
			<point x="503" y="76" type="line"/>
			<point x="94" y="76" type="line"/>
		</contour>
		<contour>
			<point x="298" y="596" type="line"/>
			<point x="569" y="596" type="line"/>
			<point x="569" y="658" type="line"/>
			<point x="298" y="658" type="line"/>
		</contour>
	</outline>
</glyph>
<glyph name="hryvnia" format="2">
	<unicode hex="20B4"/>
	<advance width="632"/>
	<outline>
		<contour>
			<point x="321" y="-16" type="curve" smooth="yes"/>
			<point x="421" y="-16"/>
			<point x="504" y="19"/>
			<point x="565" y="85" type="curve"/>
			<point x="505" y="155" type="line"/>
			<point x="461" y="101"/>
			<point x="399" y="72"/>
			<point x="324" y="72" type="curve" smooth="yes"/>
			<point x="236" y="72"/>
			<point x="186" y="101"/>
			<point x="186" y="152" type="curve" smooth="yes"/>
			<point x="186" y="216"/>
			<point x="246" y="258"/>
			<point x="339" y="327" type="curve" smooth="yes"/>
			<point x="381" y="358" type="line" smooth="yes"/>
			<point x="498" y="445"/>
			<point x="548" y="497"/>
			<point x="548" y="573" type="curve" smooth="yes"/>
			<point x="548" y="670"/>
			<point x="466" y="731"/>
			<point x="335" y="731" type="curve" smooth="yes"/>
			<point x="243" y="731"/>
			<point x="161" y="695"/>
			<point x="106" y="630" type="curve"/>
			<point x="168" y="565" type="line"/>
			<point x="205" y="616"/>
			<point x="259" y="643"/>
			<point x="328" y="643" type="curve" smooth="yes"/>
			<point x="403" y="643"/>
			<point x="449" y="613"/>
			<point x="449" y="563" type="curve" smooth="yes"/>
			<point x="449" y="514"/>
			<point x="400" y="478"/>
			<point x="331" y="425" type="curve" smooth="yes"/>
			<point x="290" y="394" type="line" smooth="yes"/>
			<point x="138" y="281"/>
			<point x="86" y="226"/>
			<point x="86" y="141" type="curve" smooth="yes"/>
			<point x="86" y="39"/>
			<point x="169" y="-16"/>
		</contour>
		<contour>
			<point x="39" y="241" type="line"/>
			<point x="593" y="241" type="line"/>
			<point x="593" y="318" type="line"/>
			<point x="39" y="318" type="line"/>
		</contour>
		<contour>
			<point x="39" y="399" type="line"/>
			<point x="593" y="399" type="line"/>
			<point x="593" y="476" type="line"/>
			<point x="39" y="476" type="line"/>
		</contour>
	</outline>
</glyph>
<glyph name="ruble" format="2">
	<unicode hex="20BD"/>
	<advance width="632"/>
	<outline>
		<contour>
			<point x="242" y="0" type="line"/>
			<point x="242" y="633" type="line"/>
			<point x="368" y="633" type="line" smooth="yes"/>
			<point x="447" y="633"/>
			<point x="497" y="586"/>
			<point x="497" y="510" type="curve" smooth="yes"/>
			<point x="497" y="433"/>
			<point x="448" y="386"/>
			<point x="368" y="386" type="curve" smooth="yes"/>
			<point x="39" y="386" type="line"/>
			<point x="39" y="304" type="line"/>
			<point x="367" y="304" type="line" smooth="yes"/>
			<point x="506" y="304"/>
			<point x="599" y="386"/>
			<point x="599" y="510" type="curve" smooth="yes"/>
			<point x="599" y="633"/>
			<point x="506" y="715"/>
			<point x="367" y="715" type="curve" smooth="yes"/>
			<point x="142" y="715" type="line"/>
			<point x="142" y="0" type="line"/>
		</contour>
		<contour>
			<point x="452" y="206" type="line"/>
			<point x="39" y="206" type="line"/>
			<point x="39" y="124" type="line"/>
			<point x="452" y="124" type="line"/>
		</contour>
	</outline>
</glyph>
<glyph name="De.loclBGR" format="2">
	<advance width="783"/>
	<outline>
		<contour>
			<point x="42" y="-174" type="line"/>
			<point x="141" y="-174" type="line"/>
			<point x="141" y="25" type="line"/>
			<point x="116" y="0" type="line"/>
			<point x="667" y="0" type="line"/>
			<point x="642" y="25" type="line"/>
			<point x="642" y="-174" type="line"/>
			<point x="741" y="-174" type="line"/>
			<point x="741" y="90" type="line"/>
			<point x="42" y="90" type="line"/>
		</contour>
		<contour>
			<point x="79" y="26" type="line"/>
			<point x="183" y="26" type="line"/>
			<point x="399" y="615" type="line"/>
			<point x="382" y="615" type="line"/>
			<point x="598" y="25" type="line"/>
			<point x="706" y="25" type="line"/>
			<point x="448" y="715" type="line"/>
			<point x="336" y="715" type="line"/>
		</contour>
	</outline>
</glyph>
<glyph name="El.loclBGR" format="2">
	<advance width="711"/>
	<outline>
		<contour>
			<point x="33" y="0" type="line"/>
			<point x="140" y="0" type="line"/>
			<point x="362" y="613" type="line"/>
			<point x="345" y="613" type="line"/>
			<point x="567" y="0" type="line"/>
			<point x="678" y="0" type="line"/>
			<point x="411" y="715" type="line"/>
			<point x="299" y="715" type="line"/>
		</contour>
	</outline>
</glyph>
<glyph name="be.loclMKDSRB" format="2">
	<advance width="592"/>
	<outline>
		<contour>
			<point x="299" y="-16" type="curve" smooth="yes"/>
			<point x="442" y="-16"/>
			<point x="541" y="85"/>
			<point x="541" y="232" type="curve" smooth="yes"/>
			<point x="541" y="340"/>
			<point x="483" y="423"/>
			<point x="369" y="477" type="curve" smooth="yes"/>
			<point x="249" y="533" type="line" smooth="yes"/>
			<point x="225" y="544"/>
			<point x="215" y="557"/>
			<point x="215" y="575" type="curve" smooth="yes"/>
			<point x="215" y="600"/>
			<point x="232" y="611"/>
			<point x="274" y="615" type="curve" smooth="yes"/>
			<point x="491" y="635" type="line"/>
			<point x="484" y="720" type="line"/>
			<point x="264" y="702" type="line" smooth="yes"/>
			<point x="163" y="693"/>
			<point x="110" y="651"/>
			<point x="110" y="577" type="curve" smooth="yes"/>
			<point x="110" y="526"/>
			<point x="145" y="484"/>
			<point x="215" y="451" type="curve" smooth="yes"/>
			<point x="319" y="402" type="line" smooth="yes"/>
			<point x="396" y="366"/>
			<point x="437" y="314"/>
			<point x="437" y="229" type="curve" smooth="yes"/>
			<point x="437" y="135"/>
			<point x="380" y="69"/>
			<point x="297" y="69" type="curve" smooth="yes"/>
			<point x="212" y="69"/>
			<point x="156" y="131"/>
			<point x="156" y="222" type="curve" smooth="yes"/>
			<point x="156" y="317"/>
			<point x="224" y="398"/>
			<point x="320" y="420" type="curve"/>
			<point x="279" y="473" type="line"/>
			<point x="137" y="443"/>
			<point x="52" y="347"/>
			<point x="52" y="217" type="curve" smooth="yes"/>
			<point x="52" y="76"/>
			<point x="149" y="-16"/>
		</contour>
	</outline>
</glyph>
<glyph name="breveacutecomb" format="2">
	<outline>
		<contour>
			<point x="0" y="583" type="curve" smooth="yes"/>
			<point x="79" y="583"/>
			<point x="143" y="643"/>
			<point x="152" y="739" type="curve"/>
			<point x="74" y="739" type="line"/>
			<point x="68" y="681"/>
			<point x="38" y="654"/>
			<point x="0" y="654" type="curve" smooth="yes"/>
			<point x="-37" y="654"/>
			<point x="-67" y="681"/>
			<point x="-74" y="739" type="curve"/>
			<point x="-151" y="739" type="line"/>
			<point x="-142" y="643"/>
			<point x="-79" y="583"/>
		</contour>
		<contour>
			<point x="-46" y="738" type="line"/>
			<point x="28" y="738" type="line"/>
			<point x="157" y="883" type="line"/>
			<point x="52" y="883" type="line"/>
		</contour>
	</outline>
	<anchor name="_top.LC" x="0" y="544"/>
</glyph>
<glyph name="dieresiscomb.cap" format="2">
	<outline>
		<contour>
			<point x="105" y="802" type="curve" smooth="yes"/>
			<point x="141" y="802"/>
			<point x="169" y="830"/>
			<point x="169" y="865" type="curve" smooth="yes"/>
			<point x="169" y="901"/>
			<point x="141" y="929"/>
			<point x="105" y="929" type="curve" smooth="yes"/>
			<point x="69" y="929"/>
			<point x="41" y="901"/>
			<point x="41" y="865" type="curve" smooth="yes"/>
			<point x="41" y="830"/>
			<point x="69" y="802"/>
		</contour>
		<contour>
			<point x="-105" y="802" type="curve" smooth="yes"/>
			<point x="-69" y="802"/>
			<point x="-42" y="830"/>
			<point x="-42" y="865" type="curve" smooth="yes"/>
			<point x="-42" y="901"/>
			<point x="-69" y="929"/>
			<point x="-105" y="929" type="curve" smooth="yes"/>
			<point x="-142" y="929"/>
			<point x="-169" y="901"/>
			<point x="-169" y="865" type="curve" smooth="yes"/>
			<point x="-169" y="830"/>
			<point x="-142" y="802"/>
		</contour>
	</outline>
	<anchor name="_top.UC" x="0" y="750"/>
</glyph>
<glyph name="hungarumlautcomb.cap" format="2">
	<outline>
		<contour>
			<point x="112" y="953" type="line"/>
			<point x="-9" y="953" type="line"/>
			<point x="-143" y="789" type="line"/>
			<point x="-45" y="789" type="line"/>
		</contour>
		<contour>
			<point x="300" y="953" type="line"/>
			<point x="178" y="953" type="line"/>
			<point x="34" y="789" type="line"/>
			<point x="132" y="789" type="line"/>
		</contour>
	</outline>
	<anchor name="_top.UC" x="0" y="750"/>
</glyph>
<glyph name="ogonekcomb.round" format="2">
	<outline>
		<contour>
			<point x="110" y="-171" type="line"/>
			<point x="99" y="-174"/>
			<point x="88" y="-175"/>
			<point x="81" y="-175" type="curve" smooth="yes"/>
			<point x="47" y="-175"/>
			<point x="21" y="-155"/>
			<point x="21" y="-115" type="curve" smooth="yes"/>
			<point x="21" y="-71"/>
			<point x="51" y="-16"/>
			<point x="127" y="48" type="curve"/>
			<point x="80" y="53" type="line"/>
			<point x="-9" y="-1"/>
			<point x="-60" y="-67"/>
			<point x="-60" y="-136" type="curve" smooth="yes"/>
			<point x="-60" y="-208"/>
			<point x="-4" y="-249"/>
			<point x="68" y="-249" type="curve" smooth="yes"/>
			<point x="82" y="-249"/>
			<point x="96" y="-248"/>
			<point x="110" y="-245" type="curve"/>
		</contour>
	</outline>
	<anchor name="_ogonek.LC.round" x="0" y="-30"/>
</glyph>
<glyph name="one.dnom" format="2">
	<advance width="356"/>
	<outline>
		<contour>
			<point x="183" y="411" type="line"/>
			<point x="73" y="331" type="line"/>
			<point x="73" y="249" type="line"/>
			<point x="169" y="322" type="line"/>
			<point x="169" y="0" type="line"/>
			<point x="252" y="0" type="line"/>
			<point x="252" y="411" type="line"/>
		</contour>
	</outline>
</glyph>
<glyph name="sha.loclBGR" format="2">
	<advance width="900"/>
	<outline>
		<contour>
			<point x="255" y="-16" type="curve" smooth="yes"/>
			<point x="363" y="-16"/>
			<point x="432" y="60"/>
			<point x="443" y="191" type="curve"/>
			<point x="402" y="207" type="line"/>
			<point x="395" y="127"/>
			<point x="340" y="69"/>
			<point x="271" y="69" type="curve" smooth="yes"/>
			<point x="207" y="69"/>
			<point x="171" y="116"/>
			<point x="171" y="200" type="curve" smooth="yes"/>
			<point x="171" y="497" type="line"/>
			<point x="71" y="497" type="line"/>
			<point x="71" y="190" type="line" smooth="yes"/>
			<point x="71" y="59"/>
			<point x="138" y="-16"/>
		</contour>
		<contour>
			<point x="573" y="-16" type="curve" smooth="yes"/>
			<point x="680" y="-16"/>
			<point x="753" y="62"/>
			<point x="754" y="179" type="curve"/>
			<point x="730" y="211" type="line"/>
			<point x="722" y="129"/>
			<point x="667" y="69"/>
			<point x="596" y="69" type="curve" smooth="yes"/>
			<point x="532" y="69"/>
			<point x="496" y="117"/>
			<point x="496" y="200" type="curve" smooth="yes"/>
			<point x="496" y="497" type="line"/>
			<point x="396" y="497" type="line"/>
			<point x="396" y="189" type="line" smooth="yes"/>
			<point x="396" y="59"/>
			<point x="462" y="-16"/>
		</contour>
		<contour>
			<point x="722" y="0" type="line"/>
			<point x="821" y="0" type="line"/>
			<point x="821" y="497" type="line"/>
			<point x="721" y="497" type="line"/>
			<point x="721" y="128" type="line"/>
			<point x="722" y="99" type="line"/>
		</contour>
	</outline>
</glyph>
<glyph name="three.dnom" format="2">
	<advance width="382"/>
	<outline>
		<contour>
			<point x="30" y="69" type="line"/>
			<point x="66" y="20"/>
			<point x="125" y="-9"/>
			<point x="188" y="-9" type="curve" smooth="yes"/>
			<point x="277" y="-9"/>
			<point x="339" y="44"/>
			<point x="339" y="114" type="curve" smooth="yes"/>
			<point x="339" y="183"/>
			<point x="282" y="228"/>
			<point x="190" y="228" type="curve"/>
			<point x="186" y="202" type="line"/>
			<point x="271" y="202"/>
			<point x="329" y="244"/>
			<point x="329" y="304" type="curve" smooth="yes"/>
			<point x="329" y="367"/>
			<point x="271" y="417"/>
			<point x="193" y="417" type="curve" smooth="yes"/>
			<point x="133" y="417"/>
			<point x="75" y="388"/>
			<point x="41" y="339" type="curve"/>
			<point x="90" y="289" type="line"/>
			<point x="114" y="329"/>
			<point x="148" y="351"/>
			<point x="184" y="351" type="curve" smooth="yes"/>
			<point x="224" y="351"/>
			<point x="248" y="328"/>
			<point x="248" y="298" type="curve" smooth="yes"/>
			<point x="248" y="266"/>
			<point x="220" y="244"/>
			<point x="177" y="244" type="curve" smooth="yes"/>
			<point x="144" y="244" type="line"/>
			<point x="144" y="180" type="line"/>
			<point x="177" y="180" type="line" smooth="yes"/>
			<point x="228" y="180"/>
			<point x="258" y="156"/>
			<point x="258" y="120" type="curve" smooth="yes"/>
			<point x="258" y="83"/>
			<point x="228" y="57"/>
			<point x="184" y="57" type="curve" smooth="yes"/>
			<point x="143" y="57"/>
			<point x="108" y="78"/>
			<point x="78" y="119" type="curve"/>
		</contour>
	</outline>
</glyph>
<glyph name="tse.loclBGR" format="2">
	<advance width="619"/>
	<outline>
		<contour>
			<point x="486" y="-132" type="line"/>
			<point x="581" y="-132" type="line"/>
			<point x="581" y="83" type="line"/>
			<point x="562" y="83" type="line" smooth="yes"/>
			<point x="527" y="83"/>
			<point x="512" y="101"/>
			<point x="512" y="141" type="curve" smooth="yes"/>
			<point x="512" y="497" type="line"/>
			<point x="412" y="497" type="line"/>
			<point x="412" y="130" type="line"/>
			<point x="414" y="109" type="line" smooth="yes"/>
			<point x="417" y="41"/>
			<point x="458" y="0"/>
			<point x="522" y="0" type="curve"/>
			<point x="486" y="45" type="line"/>
		</contour>
		<contour>
			<point x="420" y="212" type="line"/>
			<point x="412" y="127"/>
			<point x="350" y="69"/>
			<point x="279" y="69" type="curve" smooth="yes"/>
			<point x="211" y="69"/>
			<point x="171" y="115"/>
			<point x="171" y="200" type="curve" smooth="yes"/>
			<point x="171" y="497" type="line"/>
			<point x="71" y="497" type="line"/>
			<point x="71" y="190" type="line" smooth="yes"/>
			<point x="71" y="56"/>
			<point x="142" y="-16"/>
			<point x="253" y="-16" type="curve" smooth="yes"/>
			<point x="367" y="-16"/>
			<point x="446" y="70"/>
			<point x="441" y="192" type="curve"/>
		</contour>
	</outline>
</glyph>
